# xmcd
#
# Track frame offsets: 
#        150
#        28188
#        41326
#        53599
#        66218
#        78870
#        94453
#        110682
#        119872
#        130617
#        145244
#        157384
#        169375
#        181174
#        196184
#        207658
#        218810
#        228287
#        239189
#        250631
#        259886
#        270802
#        280539
#        291422
#
# Disc length: 4054 seconds
#
# Revision: 0
# Processed by: cddbd v1.5.2PL0 Copyright (c) Steve Scherf et al.
# Submitted via: ExactAudioCopyFreeDBPlugin 1.0
#
DISCID=6f0fd418
DTITLE=Various Artist - Unlock The Lock: The Kent Records Story Vol. 
DTITLE=1 [CD2]
DYEAR=2015
DGENRE=R&B
TTITLE0=B.B. King - Sweet Sixteen Pts 1 and 2
TTITLE1=Jimmy Witherspoon - Your Cheating Heart
TTITLE2=Jimmy Nelson - Unlock The Lock
TTITLE3=B.B. King - Good Man Gone Bad
TTITLE4=Hadda Brooks - Tomorrow Night
TTITLE5=B.B. King - You Done Lost Your Good Thing Now
TTITLE6=Charlie Owens and The Sensational Ink Spots - Diane
TTITLE7=Tony Allen and The Wanderers - If Love Was Money
TTITLE8=B.B. King - Bad Case Of Love
TTITLE9=Billy Ray - Texas Queen
TTITLE10=Tony Allen and Group - Dreamin'
TTITLE11=Joe Houston - Doing The Twist
TTITLE12=Little Joe Hinton - Get In The Car
TTITLE13=Etta James - Crazy Feeling aka Do Something Crazy
TTITLE14=Little Joe Hinton - The Whip Twist
TTITLE15=Pat Hunt - Goodnight My Love
TTITLE16=Teddy Reynolds - Do You Wanna Twist
TTITLE17=Billy Ray - Playboy
TTITLE18=The Classicals - Camel Caravan
TTITLE19=Hal Davis - Without You
TTITLE20=Bobby Blue Bland - Love You Baby
TTITLE21=The Newports - The Wonder Of Love
TTITLE22=Bobby Sanders - Maybe I'm Wrong
TTITLE23=B.B. King - Mashing The Popeye
EXTD=
EXTT0=
EXTT1=
EXTT2=
EXTT3=
EXTT4=
EXTT5=
EXTT6=
EXTT7=
EXTT8=
EXTT9=
EXTT10=
EXTT11=
EXTT12=
EXTT13=
EXTT14=
EXTT15=
EXTT16=
EXTT17=
EXTT18=
EXTT19=
EXTT20=
EXTT21=
EXTT22=
EXTT23=
PLAYORDER=
